<svg xmlns="http://www.w3.org/2000/svg" xmlns:xlink="http://www.w3.org/1999/xlink" viewBox="0 0 597.35 295.82" version="1.0">
  <defs>
    <linearGradient id="e">
      <stop offset="0" stop-color="#bcbcbc"/>
      <stop offset="1" stop-color="#bcbcbc" stop-opacity="0"/>
    </linearGradient>
    <linearGradient id="a">
      <stop offset="0" stop-color="#fff"/>
      <stop offset="1" stop-color="#fff" stop-opacity="0"/>
    </linearGradient>
    <linearGradient id="d">
      <stop offset="0"/>
      <stop offset=".813" stop-color="#3c3c3c"/>
      <stop offset="1"/>
    </linearGradient>
    <linearGradient id="b">
      <stop offset="0" stop-color="#d2ffd2"/>
      <stop offset=".865" stop-color="#09a809"/>
      <stop offset="1" stop-color="#009600"/>
    </linearGradient>
    <linearGradient id="c">
      <stop offset="0" stop-color="#3fc200"/>
      <stop offset=".5" stop-color="#2ca900"/>
      <stop offset="1" stop-color="#0a9600"/>
    </linearGradient>
    <linearGradient id="t" y2="309.86" xlink:href="#a" gradientUnits="userSpaceOnUse" x2="-261.16" gradientTransform="matrix(.47931 0 0 .4982 627.58 237.96)" y1="220.24" x1="-298.28"/>
    <linearGradient id="s" y2="309.86" xlink:href="#a" gradientUnits="userSpaceOnUse" x2="-261.16" gradientTransform="matrix(.47931 0 0 .4982 256.96 240.51)" y1="220.24" x1="-298.28"/>
    <linearGradient id="p" y2="84.905" gradientUnits="userSpaceOnUse" x2="153.83" gradientTransform="matrix(.47931 0 0 .4982 256.96 240.51)" y1="237.28" x1="155.67">
      <stop offset="0" stop-color="#9eecff"/>
      <stop offset="1" stop-color="#87efff"/>
    </linearGradient>
    <linearGradient id="i" y2="277.06" gradientUnits="userSpaceOnUse" x2="159.11" gradientTransform="matrix(.47931 0 0 .4982 256.96 240.51)" y1="169.74" x1="159.11">
      <stop offset="0" stop-color="#fff" stop-opacity="0"/>
      <stop offset=".5" stop-color="#fff" stop-opacity=".637"/>
      <stop offset=".75" stop-color="#fff" stop-opacity=".505"/>
      <stop offset="1" stop-color="#fff" stop-opacity="0"/>
    </linearGradient>
    <linearGradient id="h" y2="430.16" xlink:href="#c" gradientUnits="userSpaceOnUse" x2="110.21" gradientTransform="matrix(.47931 0 0 .4982 256.96 240.51)" y1="461.76" x1="110.13"/>
    <linearGradient id="g" y2="51.26" xlink:href="#c" gradientUnits="userSpaceOnUse" x2="96.014" gradientTransform="matrix(.47931 0 0 .4982 256.96 240.51)" y1="498.04" x1="97.294"/>
    <linearGradient id="q" y2="255.72" gradientUnits="userSpaceOnUse" x2="108.63" gradientTransform="matrix(.54793 0 0 .58571 276.48 205.31)" y1="183.3" x1="104.61">
      <stop offset="0" stop-color="#fff"/>
      <stop offset="1" stop-color="#fff" stop-opacity="0"/>
    </linearGradient>
    <linearGradient id="k" y2="534.12" xlink:href="#a" gradientUnits="userSpaceOnUse" x2="147.47" gradientTransform="translate(56.533 171.34) scale(.67534)" y1="430.78" x1="137.69"/>
    <linearGradient id="l" y2="549.94" xlink:href="#e" gradientUnits="userSpaceOnUse" x2="120.11" y1="563.98" x1="132.7"/>
    <radialGradient id="o" xlink:href="#b" gradientUnits="userSpaceOnUse" cy="-489.54" cx="-425.72" gradientTransform="matrix(-.09721 -.36758 .42431 -.12626 692.41 211.62)" r="171.96"/>
    <radialGradient id="n" xlink:href="#b" gradientUnits="userSpaceOnUse" cy="227.89" cx="-72.264" gradientTransform="matrix(-.1029 .36584 -.44055 -.13388 250.7 490.47)" r="171.96"/>
    <radialGradient id="r" xlink:href="#b" gradientUnits="userSpaceOnUse" cy="189.36" cx="395.06" gradientTransform="matrix(-.26385 .83769 -.79004 -.2443 648.89 -93.629)" r="27.198"/>
    <radialGradient id="j" xlink:href="#d" gradientUnits="userSpaceOnUse" cy="532.03" cx="173.11" r="61.067"/>
    <radialGradient id="m" xlink:href="#a" gradientUnits="userSpaceOnUse" cy="532.74" cx="177.85" r="8.09"/>
    <filter id="f" height="1.975" width="1.036" y="-.487" x="-.018">
      <feGaussianBlur stdDeviation="4.544"/>
    </filter>
  </defs>
  <g transform="translate(-42.879 -246.44)">
    <rect rx="57.77" ry="9.143" transform="matrix(.99178 0 0 2.8219 20.732 -862.74)" width="509.51" y="469.7" x="81.976" height="18.287" stroke-width=".6" color="#000" fill-rule="evenodd" filter="url(#f)" stroke="#bcbcbc" fill="#666"/>
    <path d="M478.23 466.07l114.09-7.11 3.56-8.81-13.95-34.55-104.69-5.55c.33 18.67.66-21.85.99 56.02z" fill-rule="evenodd" stroke="#000"/>
    <path d="M311.28 273.97c-87.35.26-141.96 54.18-185.02 88.68 9.41-3.65 19.66-5.65 30.38-5.65 45.85 0 83.07 36.74 83.07 82.01 0 9.9-1.78 19.38-5.03 28.17l215.73-.55c-3.61-9.18-5.59-19.17-5.59-29.61 0-45.28 37.22-82.01 83.07-82.01 16.23 0 31.38 4.61 44.17 12.56-5.07-4.4-9.97-8.17-14.14-10.57-17.25-9.96-54.92-12.09-63.89-13.95-8.88-1.84-11.56-2.3-14.05-4.66-9.26-8.73-80.4-73.32-168.7-64.42z" fill-rule="evenodd" fill="url(#g)"/>
    <path d="M239.1 451.45l208.92-.57 3.25 16.32H229.36l9.74-15.75z" fill-rule="evenodd" color="#000" fill="url(#h)"/>
    <path d="M547.35 364.16c20.92 18.66 39.16 38.86 54.26 60.38 6.33-8.03 7.1-24.87 4.58-29.06-10.59-17.6-32.84-28.8-58.84-31.32z" opacity=".992" fill-rule="evenodd" fill="#b3b3b3"/>
    <path d="M248.65 289.63l-1.05.36c-34.77 11.97-65.6 33.53-93.97 57.22-.39.61-3.84 3.42-5.89 5.26-2.33 1.27-5.1 2.95-8.43 5.21 34.04 3.43 73.33 27.02 83.22 53.61 3.72 9.65 5.23 19.85 4.9 30 80.97-.06 161.86-3.79 242.81-4.94 3.29-23.31 19.51-43.67 38.24-60.56 5.87-5.59 12.96-10.4 18.12-16.41 1.22-1.82.18-4.14-.98-5.49.9-.1-.09.26-7.72-1.38-19.59-3.95-41.05-1.4-51.92-19.9-.88-1.49 11.37 18.65 9.68 18.63-65.67-.85-127.61-2.05-184.37-2.49-.29 0-1.18-50.41-1.71-63.07-1.77-.08-11.96 1.52-13.14 1.72-.15 1.19-2.41 60.82-3.26 60.79-33.4-1.42-66.82-.65-103.39-.66 1.34-1.05 2.52-2.33 3.46-3.87 9.65-15.88 46.01-40.63 75.4-54.03z" opacity=".6" fill-rule="evenodd" fill="url(#i)"/>
    <path d="M94.383 451.33l121 14.85 6.28-15.42-14.27-35.97-103.3-5.14-9.707 41.68z" fill-rule="evenodd" stroke="#000"/>
    <g color="#000" fill-rule="evenodd">
      <path d="M234.18 532.03a61.067 61.067 0 11-122.14 0 61.067 61.067 0 11122.14 0z" fill="url(#j)" transform="matrix(.92055 0 0 .92085 -.88 -44.496)"/>
      <path d="M198.274 444.2a39.492 39.505 0 11-78.984 0 39.492 39.505 0 1178.984 0z" fill="#999"/>
      <path d="M214.68 530.64c-35.79-41.18-46.06 10.36-82.48 0 0-22.77 18.47-41.25 41.24-41.25 22.76 0 41.24 18.48 41.24 41.25z" fill="url(#k)" transform="matrix(.92055 0 0 .92085 -.88 -44.496)"/>
      <path d="M136.58 553.79a12.1 9.614 0 11-24.2 0 12.1 9.614 0 1124.2 0z" transform="matrix(.37268 .47811 -.47852 .37323 355.548 161.084)" stroke="url(#l)" stroke-width="2.321" fill="#080808"/>
      <path d="M136.58 553.79a12.1 9.614 0 11-24.2 0 12.1 9.614 0 1124.2 0z" transform="matrix(-.14574 .58849 -.58899 -.14595 502.588 424.474)" stroke-width="2.321" stroke="url(#l)" fill="#080808"/>
      <path d="M136.58 553.79a12.1 9.614 0 11-24.2 0 12.1 9.614 0 1124.2 0z" transform="matrix(-.55378 .24637 -.24659 -.55461 385.273 703.952)" stroke-width="2.321" stroke="url(#l)" fill="#080808"/>
      <path d="M136.58 553.79a12.1 9.614 0 11-24.2 0 12.1 9.614 0 1124.2 0z" transform="matrix(-.54996 -.25478 .255 -.55079 112.146 786.046)" stroke-width="2.321" stroke="url(#l)" fill="#080808"/>
      <path d="M136.58 553.79a12.1 9.614 0 11-24.2 0 12.1 9.614 0 1124.2 0z" transform="matrix(-.15048 -.5873 .58779 -.1507 -135.749 624.566)" stroke-width="2.321" stroke="url(#l)" fill="#080808"/>
      <path d="M136.58 553.79a12.1 9.614 0 11-24.2 0 12.1 9.614 0 1124.2 0z" transform="matrix(.39123 -.46304 .46343 .39182 -159.057 309.037)" stroke-width="2.321" stroke="url(#l)" fill="#080808"/>
      <path d="M136.58 553.79a12.1 9.614 0 11-24.2 0 12.1 9.614 0 1124.2 0z" transform="matrix(.60563 .0232 -.02321 .60655 69.191 110.787)" stroke-width="2.321" stroke="url(#l)" fill="#080808"/>
      <path d="M183.98 531.08a7.79 7.79 0 11-15.58 0 7.79 7.79 0 1115.58 0z" transform="matrix(.92055 0 0 .92085 -3.413 -44.841)" opacity=".377" stroke="#bcbcbc" stroke-width=".6" fill="url(#m)"/>
    </g>
    <path d="M157.11 356.42c-45.85 0-81.791 36.75-81.791 82.03.487 12.08 12.984 11.71 22.887 15.4 3.864-42.18 27.494-61.19 63.334-60.87 36.7.32 63.47 38.27 53.86 74.22l19.13-.04c3.6-9.17 5.64-18.29 5.64-28.71 0-45.28-37.21-82.03-83.06-82.03z" color="#000" fill="url(#n)"/>
    <g fill-rule="evenodd" color="#000">
      <path d="M234.18 532.03a61.067 61.067 0 11-122.14 0 61.067 61.067 0 11122.14 0z" fill="url(#j)" transform="matrix(.92055 0 0 .92085 373.65 -43.689)"/>
      <path d="M572.803 445.006a39.492 39.505 0 11-78.984 0 39.492 39.505 0 1178.984 0z" fill="#999"/>
      <path d="M214.68 530.64c-35.79-41.18-46.06 10.36-82.48 0 0-22.77 18.47-41.25 41.24-41.25 22.76 0 41.24 18.48 41.24 41.25z" fill="url(#k)" transform="matrix(.92055 0 0 .92085 373.65 -43.689)"/>
      <path d="M136.58 553.79a12.1 9.614 0 11-24.2 0 12.1 9.614 0 1124.2 0z" transform="matrix(.37268 .47811 -.47852 .37323 730.078 161.89)" stroke-width="2.321" stroke="url(#l)" fill="#080808"/>
      <path d="M136.58 553.79a12.1 9.614 0 11-24.2 0 12.1 9.614 0 1124.2 0z" transform="matrix(-.14574 .58849 -.58899 -.14595 877.117 425.281)" stroke-width="2.321" stroke="url(#l)" fill="#080808"/>
      <path d="M136.58 553.79a12.1 9.614 0 11-24.2 0 12.1 9.614 0 1124.2 0z" transform="matrix(-.55378 .24637 -.24659 -.55461 759.802 704.76)" stroke-width="2.321" stroke="url(#l)" fill="#080808"/>
      <path d="M136.58 553.79a12.1 9.614 0 11-24.2 0 12.1 9.614 0 1124.2 0z" transform="matrix(-.54996 -.25478 .255 -.55079 486.675 786.853)" stroke-width="2.321" stroke="url(#l)" fill="#080808"/>
      <path d="M136.58 553.79a12.1 9.614 0 11-24.2 0 12.1 9.614 0 1124.2 0z" transform="matrix(-.15048 -.5873 .58779 -.1507 238.78 625.373)" stroke-width="2.321" stroke="url(#l)" fill="#080808"/>
      <path d="M136.58 553.79a12.1 9.614 0 11-24.2 0 12.1 9.614 0 1124.2 0z" transform="matrix(.39123 -.46304 .46343 .39182 215.472 309.844)" stroke-width="2.321" stroke="url(#l)" fill="#080808"/>
      <path d="M136.58 553.79a12.1 9.614 0 11-24.2 0 12.1 9.614 0 1124.2 0z" transform="matrix(.60563 .0232 -.02321 .60655 443.72 111.594)" stroke-width="2.321" stroke="url(#l)" fill="#080808"/>
      <path d="M183.98 531.08a7.79 7.79 0 11-15.58 0 7.79 7.79 0 1115.58 0z" transform="matrix(.92055 0 0 .92085 371.116 -44.034)" opacity=".377" stroke-width=".6" stroke="#bcbcbc" fill="url(#m)"/>
    </g>
    <path d="M526.79 353.38c45.85 0 55.59 23.27 79.87 54.57 6.37 8.2-10.08 41.45-13.67 50.81l-3.96-.7c2.17-41.41-19.43-65.13-56.28-66.53-27.54.1-61.49 20.96-54.08 75.21l-29.38.51c-3.59-9.36-5.56-19.53-5.56-30.16 0-46.21 37.2-83.71 83.06-83.71z" color="#000" fill="url(#o)"/>
    <path d="M291.11 284.96l2.64 62.48 176.89 2.06c-48.14-50.35-111.83-74.32-179.53-64.54zm-16.46 3.32c-64.87 15.91-96.67 57.82-96.67 57.82l94.14 1.09 2.53-58.91z" fill-rule="evenodd" stroke="#087900" stroke-width="1.026" fill="url(#p)"/>
    <path d="M320.99 288.51c-7.95.04-15.88.54-23.77 1.5.65 17.15 1.35 34.3 2.11 51.45 53.15.61 106.29 1.18 159.44 1.76-37.38-34.15-86.97-55.42-137.78-54.71zm-51.53 7.12c-29.28 8.2-56.8 23.33-78.74 44.62 26.14.14 52.29.67 78.44.76.49-15.26 1.54-30.5 1.73-45.77l-1.43.39z" opacity=".958" fill-rule="evenodd" fill="url(#q)"/>
    <path d="M433.81 199.02a27.198 22.439 0 11-54.39 0 27.198 22.439 0 1154.39 0z" transform="matrix(.47931 0 0 .4982 267.11 242.52)" color="#000" fill="url(#r)"/>
    <path d="M283.38 284.45c-1.08 0-2.74 103.66 0 167.34" stroke="#076c00" stroke-width="1.368" fill="none"/>
    <path d="M156.36 360.79c-24.94-2.74-64.165 15.24-72.429 55.45 39.709-71.29 101.35-40.66 103.17-43.96-9.15-6.44-19.79-10.35-30.74-11.49z" opacity=".969" color="#000" fill="url(#s)"/>
    <path d="M526.98 358.24c-24.95-2.74-64.17 15.24-72.43 55.44 39.7-71.28 101.34-40.65 103.16-43.95-9.15-6.44-19.78-10.35-30.73-11.49z" opacity=".969" color="#000" fill="url(#t)"/>
    <path d="M444.77 451.66c-38.05 1.19-76.15.34-114.22.76-30.11.12-60.52-.19-90.45.64-4.77 4.32-.09 3.8 4.48 3.49 67.24-.36 134.48-.02 201.72-.14-.57-1.13.35-4.79-1.53-4.75z" opacity=".155" color="#000" fill-rule="evenodd" fill="#fff"/>
  </g>
</svg>
